<svg width="64" height="64" viewBox="0 0 64 64" fill="none" xmlns="http://www.w3.org/2000/svg">
<path d="M54.4112 0H17.8223L31.6119 13.8773C31.9219 13.859 32.234 13.8498 32.5483 13.8498C35.6891 13.8484 38.7679 14.7286 41.4384 16.3913C44.1088 18.0541 46.2649 20.4334 47.6639 23.2616C47.9334 23.2438 48.2059 23.2342 48.4801 23.2342C50.7457 23.2347 52.966 23.8724 54.8902 25.0753C56.8144 26.2782 58.3657 27.9983 59.369 30.0413L63.6984 25.687V9.8262C63.6566 7.31566 62.6789 4.91246 60.9588 3.09262C59.2389 1.27279 56.902 0.169035 54.4112 0Z" fill="#00B4FF"/>
<path d="M59.3757 30.0414L41.7764 47.7473L57.2928 63.3534C59.1578 62.6448 60.7671 61.3876 61.9112 59.7456C63.0553 58.1036 63.6809 56.153 63.7066 54.1481V25.6807L59.3757 30.0414Z" fill="#FF6E6E"/>
<path d="M7.07157 41.9919C6.60258 40.8342 6.36239 39.5956 6.36445 38.3456C6.36445 33.1511 10.4259 28.9403 15.4351 28.9403C15.5521 28.9403 15.6676 28.9403 15.7831 28.9483C16.2226 24.9573 18.0555 21.2524 20.9558 18.4929C23.856 15.7334 27.6355 14.0979 31.6219 13.8777L17.8323 0.00845337H9.3581C6.83751 0.170038 4.47284 1.2914 2.74518 3.14437C1.01751 4.99735 0.0566621 7.44274 0.0581071 9.98298V49.0474L7.07157 41.9919Z" fill="#23D3FF"/>
<path d="M41.7618 47.7471H15.4317C14.0626 47.7485 12.712 47.4288 11.4872 46.8134C9.48203 45.7969 7.91176 44.0829 7.06814 41.9898L0.0546875 49.047V53.9996C0.0546875 56.6514 1.10208 59.1946 2.96644 61.0697C3.88957 61.9983 4.98551 62.7348 6.19164 63.2373C7.39778 63.7397 8.69048 63.9983 9.99605 63.9983H53.7651C54.9664 63.9977 56.1575 63.7792 57.2815 63.3533L41.7618 47.7471Z" fill="#00F5D0"/>
<path d="M63.6566 9.8262C63.615 7.31346 62.6356 4.90833 60.9129 3.08809C59.1901 1.26785 56.8498 0.16557 54.3567 0H9.29993C6.78022 0.163844 4.41688 1.28589 2.68967 3.13838C0.962479 4.99086 0.000848463 7.43497 0 9.97457V54.0012C0 56.6531 1.04738 59.1963 2.91175 61.0714C4.77611 62.9466 7.30473 64 9.94137 64H53.7153C54.9165 63.9995 56.1077 63.781 57.2316 63.3549H57.2429C59.1079 62.6465 60.7174 61.3893 61.8615 59.7472C63.0056 58.1053 63.6311 56.1546 63.6566 54.1496V26.0096V9.8262Z" fill="url(#paint0_radial_1_23)"/>
<path d="M59.4155 30.0608C58.4122 28.0177 56.8608 26.2975 54.9366 25.0947C53.0124 23.8918 50.7921 23.254 48.5265 23.2535C48.2523 23.2535 47.9813 23.2633 47.712 23.281C46.3125 20.4528 44.1561 18.0735 41.4854 16.4108C38.8147 14.7481 35.7357 13.8678 32.5947 13.8693C32.274 13.8693 31.9693 13.8789 31.6583 13.8967C27.6719 14.1169 23.8924 15.7524 20.9922 18.5119C18.092 21.2715 16.2591 24.9763 15.8195 28.9674C15.7041 28.9674 15.5886 28.9593 15.4716 28.9593C10.4624 28.9593 6.40089 33.1701 6.40089 38.3646C6.39883 39.6146 6.63902 40.8532 7.10801 42.0109C7.95162 44.104 9.52188 45.8179 11.5271 46.8345C12.7519 47.4498 14.1025 47.7695 15.4716 47.7682H41.8161L59.4171 30.0624L59.4155 30.0608Z" fill="white"/>
<path fill-rule="evenodd" clip-rule="evenodd" d="M53.9892 28.8367C55.8759 28.8091 57.743 29.2261 59.4409 30.0543L41.8335 47.7602V40.5142H41.8495C41.9902 37.3706 43.3305 34.4026 45.5916 32.2276C47.8527 30.0526 50.8604 28.838 53.9892 28.8367Z" fill="#FFD12F"/>
<defs>
<radialGradient id="paint0_radial_1_23" cx="0" cy="0" r="1" gradientUnits="userSpaceOnUse" gradientTransform="translate(31.8283 32.0008) scale(31.8219 32.0056)">
<stop stop-color="#261C38" stop-opacity="0.6"/>
<stop offset="0.28" stop-color="#261C38" stop-opacity="0.3"/>
<stop offset="0.86" stop-color="#302640" stop-opacity="0.05"/>
<stop offset="1" stop-color="#302640" stop-opacity="0"/>
</radialGradient>
</defs>
</svg>
